# AST/ASF file generated using VICON BodyLanguage
# -----------------------------------------------
:version 1.10
:name VICON
:units
  mass 1.0
  length 0.45
  angle deg
:documentation
   .ast/.asf automatically generated from VICON data using
   VICON BodyBuilder and BodyLanguage model FoxedUp or BRILLIANT.MOD
:root
   order TX TY TZ RX RY RZ
   axis XYZ
   position 0 0 0  
   orientation 0 0 0 
:bonedata
  begin
     id 1 
     name lhipjoint
     direction 0.64773 -0.699417 0.302095 
     length 2.48597 
     axis 0 0 0  XYZ
  end
  begin
     id 2 
     name lfemur
     direction 0.34202 -0.939693 0  
     length 6.71947  
     axis 0 0 20  XYZ
    dof rx ry rz
    limits (-160.0 20.0)
           (-70.0 70.0)
           (-60.0 70.0)
  end
  begin
     id 3 
     name ltibia
     direction 0.34202 -0.939693 0   
     length 8.08777   
     axis 0 0 20   XYZ
    dof rx
    limits (-10.0 170.0)
  end
  begin
     id 4 
     name lfoot
     direction 0.0808503 -0.222134 0.971658   
     length 2.08264   
     axis -90 7.62852e-016 20   XYZ
    dof rx rz
    limits (-45.0 90.0)
           (-70.0 20.0)
  end
  begin
     id 5 
     name ltoes
     direction 1.53502e-011 -4.22007e-011 1   
     length 1.04662   
     axis -90 7.62852e-016 20   XYZ
    dof rx
    limits (-90.0 20.0)
  end
  begin
     id 6 
     name rhipjoint
     direction -0.610924 -0.726792 0.313919   
     length 2.39233  
     axis 0 0 0  XYZ 
  end
  begin
     id 7 
     name rfemur
     direction -0.34202 -0.939693 0   
     length 6.96955   
     axis 0 0 -20   XYZ
    dof rx ry rz
    limits (-160.0 20.0)
           (-70.0 70.0)
           (-70.0 60.0)
  end
  begin
     id 8 
     name rtibia
     direction -0.34202 -0.939693 0   
     length 8.19584   
     axis 0 0 -20   XYZ
    dof rx
    limits (-10.0 170.0)
 end
 begin
     id 9 
     name rfoot
     direction -0.077777 -0.213691 0.9738   
     length 2.07539  
     axis -90 -7.62852e-016 -20   XYZ
    dof rx rz
    limits (-45.0 90.0)
           (-20.0 70.0)
  end
  begin
     id 10 
     name rtoes
     direction -1.53558e-011 -4.22006e-011 1   
     length 1.04381   
     axis -90 -7.62852e-016 -20   XYZ
    dof rx
    limits (-90.0 20.0)
  end
  begin
     id 11 
     name lowerback
     direction -0.00971646 0.996074 0.0879841   
     length 1.67643   
     axis 0 0 0   XYZ
    dof rx ry rz
    limits (-20.0 45.0)
           (-30.0 30.0)
           (-30.0 30.0)
  end
  begin
     id 12 
     name upperback
     direction 0.0127391 0.991676 0.128127   
     length 1.63741   
     axis 0 0 0   XYZ
    dof rx ry rz
    limits (-20.0 45.0)
           (-30.0 30.0)
           (-30.0 30.0)
  end
  begin
     id 13 
     name thorax
     direction 0.0167583 0.996049 0.0872067   
     length 1.65931   
     axis 0 0 0   XYZ
    dof rx ry rz
    limits (-20.0 45.0)
           (-30.0 30.0)
           (-30.0 30.0)
  end
  begin
     id 14 
     name lowerneck
     direction -0.0317829 0.998312 0.0486079   
     length 1.79021   
     axis 0 0 0   XYZ
    dof rx ry rz
    limits (-20.0 45.0)
           (-30.0 30.0)
           (-30.0 30.0)
  end
  begin
     id 15 
     name upperneck
     direction 0.0896851 0.972452 -0.215159   
     length 1.78797   
     axis 0 0 0   XYZ
    dof rx ry rz
    limits (-20.0 45.0)
           (-30.0 30.0)
           (-30.0 30.0)
  end
  begin
     id 16
     name head
     direction 0.0310949 0.996503 -0.0775582  
     length 1.81549  
     axis 0 0 0   XYZ
    dof rx ry rz
    limits (-20.0 45.0)
           (-30.0 30.0)
           (-30.0 30.0)
  end
  begin
     id 17 
     name lclavicle
     direction 0.853638 0.502051 -0.138733  
     length 3.31627  
     axis 0 0 0   XYZ
    dof ry rz
    limits (-20.0 10.0)
           (0.0 20.0)
  end
  begin
     id 18 
     name lhumerus
     direction 1 -4.48962e-011 -1.41788e-018   
     length 5.54893   
     axis 180 -30 -90   XYZ
    dof rx ry rz
    limits (-60.0 90.0)
           (-90.0 90.0)
           (-90.0 90.0)
  end
  begin
     id 19
     name lradius
     direction 1 -4.48962e-011 -4.95754e-027   
     length 3.02898   
     axis 180 -30 -90   XYZ
    dof rx
    limits (-10.0 170.0)
  end
  begin
     id 20
     name lwrist
     direction 1 -4.48952e-011 -1.03764e-026   
     length 1.51449   
     axis 9.09556e-015 90 90   XYZ
    dof ry
    limits (-180.0 0.0)
 end
  begin
     id 21 
     name lhand
     direction 1 -4.4902e-011 -2.07528e-026   
     length 0.640951   
     axis 1.3242e-014 90 90   XYZ
    dof rx rz
    limits (-90.0 90.0)
           (-45.0 45.0)
  end
  begin
     id 22 
     name lfingers
     direction 1 -4.49014e-011 -4.15056e-026   
     length 0.516751   
     axis 2.64841e-014 90 90   XYZ
    dof rx
    limits (0.0 90.0)
  end
  begin
     id 23
     name lthumb
     direction 0.707107 -6.35008e-011 0.707107   
     length 0.741954   
     axis -90 45 2.85299e-015   XYZ
    dof rx rz
    limits (-45.0 45.0)
           (-45.0 45.0)
  end
  begin
     id 24 
     name rclavicle
     direction -0.888531 0.455324 -0.0565039   
     length 3.20126  
     axis 0 0 0   XYZ 
    dof ry rz
    limits (-10.0 20.0)
           (-20.0 0.0)
  end
  begin
     id 25 
     name rhumerus
     direction -1 -4.48946e-011 -8.98298e-028  
     length 5.3519   
     axis 180 30 90   XYZ
    dof rx ry rz
    limits (-90.0 60.0)
           (-90.0 90.0)
           (-90.0 90.0)
  end
  begin
     id 26 
     name rradius
     direction -1 -4.4899e-011 -3.18779e-027   
     length 3.02531   
     axis 180 30 90   XYZ
    dof rx
    limits (-10.0 170.0)
  end
  begin
     id 27 
     name rwrist
     direction -1 -4.4897e-011 -1.03764e-026   
     length 1.51266   
     axis 9.09556e-015 -90 -90   XYZ
    dof ry
    limits (-180.0 0.0)
  end
  begin
     id 28
     name rhand
     direction -1 -4.48941e-011 -2.07528e-026   
     length 0.78389   
     axis 1.3242e-014 -90 -90   XYZ
    dof rx rz
    limits (-90.0 90.0)
           (-45.0 45.0)
  end
  begin
     id 29
     name rfingers
     direction -1 -4.49012e-011 -4.15056e-026   
     length 0.631992   
     axis 2.64841e-014 -90 -90   XYZ
    dof rx
    limits (0.0 90.0)
  end
  begin
     id 30
     name rthumb
     direction -0.707107 -6.3496e-011 0.707107   
     length 0.907418   
     axis -90 -45 -2.85299e-015   XYZ
    dof rx rz
    limits (-45.0 45.0)
           (-45.0 45.0)
  end
:hierarchy
  begin
    root lhipjoint rhipjoint lowerback
    lhipjoint lfemur
    lfemur ltibia
    ltibia lfoot
    lfoot ltoes
    rhipjoint rfemur
    rfemur rtibia
    rtibia rfoot
    rfoot rtoes
    lowerback upperback
    upperback thorax
    thorax lowerneck lclavicle rclavicle
    lowerneck upperneck
    upperneck head
    lclavicle lhumerus
    lhumerus lradius
    lradius lwrist
    lwrist lhand lthumb
    lhand lfingers
    rclavicle rhumerus
    rhumerus rradius
    rradius rwrist
    rwrist rhand rthumb
    rhand rfingers
  end

#!OML:ASF E:\Style3\Style3.ASF
:FULLY-SPECIFIED
:DEGREES
2827
root -0.672616 17.3631 1.75187 21.5648 122.219 -2.91116
lowerback 14.6302 -0.853209 0.97737
upperback -0.715787 -0.566525 3.3534
thorax -8.98691 -0.18986 3.17667
lowerneck -1.44975 -8.25453 -7.47057
upperneck -5.73313 -10.4514 14.4481
head -0.239815 -5.24418 5.42348
rclavicle -1.23246e-013 5.88403e-014
rhumerus 6.04062 19.932 -90.5826
rradius 130.898
rwrist 13.2077
rhand 30.5131 5.60642
rfingers 7.12502
rthumb 54.1677 -13.1176
lclavicle -1.23246e-013 5.88403e-014
lhumerus 2.94668 2.74727 92.2316
lradius 129.705
lwrist -22.3829
lhand 10.2637 39.5252
lfingers 7.12502
lthumb 35.3764 65.9925
rfemur -39.4011 -5.56048 14.1029
rtibia 40.9045
rfoot -18.0529 -20.0572
rtoes -13.7361
lfemur -42.683 -14.436 -3.78869
ltibia 18.8684
lfoot -0.456746 11.3906
ltoes -37.3465
2828
root -0.686238 17.3685 1.75279 21.2163 121.362 -3.23627
lowerback 15.0623 -0.913874 1.11378
upperback -0.840896 -0.626332 3.19064
thorax -9.3709 -0.228306 2.95238
lowerneck -1.4413 -8.20602 -7.36547
upperneck -5.63241 -10.3963 14.4214
head -0.225406 -5.21689 5.39864
rclavicle -9.54166e-015 -5.08889e-014
rhumerus 6.07325 19.7326 -90.5719
rradius 130.919
rwrist 13.8108
rhand 29.9152 5.1702
rfingers 7.12502
rthumb 53.6307 -13.9145
lclavicle -9.54166e-015 -5.08889e-014
lhumerus 2.8216 2.14561 92.0344
lradius 129.5
lwrist -22.0889
lhand 10.1791 39.5578
lfingers 7.12502
lthumb 35.2962 66.0442
rfemur -39.4635 -5.22289 13.7151
rtibia 40.7471
rfoot -17.9111 -19.7165
rtoes -14.025
lfemur -42.3954 -14.2247 -4.10138
ltibia 18.8954
lfoot -0.362162 11.8395
ltoes -37.7112
2829
root -0.699895 17.3755 1.75335 20.9393 120.364 -3.52683
lowerback 15.0726 -0.950393 0.952363
upperback -0.725738 -0.701378 3.23203
thorax -9.2447 -0.255878 3.10292
lowerneck -1.52659 -8.12426 -7.40297
upperneck -5.74947 -10.2724 14.3594
head -0.260626 -5.15344 5.39042
rclavicle 1.98785e-014 -3.26007e-014
rhumerus 6.42289 19.7217 -90.3403
rradius 130.95
rwrist 14.6074
rhand 29.5389 4.86381
rfingers 7.12502
rthumb 53.2919 -14.4419
lclavicle 1.98785e-014 -3.26007e-014
lhumerus 3.1937 1.82028 92.0549
lradius 129.392
lwrist -22.1665
lhand 10.7394 39.9916
lfingers 7.12502
lthumb 35.8273 66.3503
rfemur -39.5893 -4.7482 13.3209
rtibia 40.5561
rfoot -17.6918 -19.46
rtoes -14.9008
lfemur -42.0787 -13.9652 -4.39324
ltibia 18.8993
lfoot -0.459794 12.4658
ltoes -37.4189
2830
root -0.711694 17.3827 1.7562 20.787 119.252 -3.65082
lowerback 14.81 -0.91274 0.694268
upperback -0.423101 -0.691649 3.38622
thorax -8.75987 -0.237833 3.39722
lowerneck -1.66936 -8.04393 -7.50348
upperneck -5.99441 -10.1356 14.2838
head -0.322355 -5.0824 5.38969
rclavicle 3.18055e-015 1.59028e-014
rhumerus 6.72596 19.4693 -90.1592
rradius 130.95
rwrist 15.4871
rhand 29.2303 4.96691
rfingers 7.12502
rthumb 53.0137 -14.5168
lclavicle 3.18055e-015 1.59028e-014
lhumerus 3.82648 1.55833 92.1392
lradius 129.477
lwrist -22.4354
lhand 11.7656 40.3563
lfingers 7.12502
lthumb 36.799 66.4725
rfemur -39.6942 -4.11482 12.9961
rtibia 40.3405
rfoot -17.4692 -19.2592
rtoes -15.2844
lfemur -41.681 -13.538 -4.6472
ltibia 18.9058
lfoot -0.667088 13.0744
ltoes -36.689
2831
root -0.724313 17.3861 1.75825 20.5033 118.089 -4.00651
lowerback 14.1744 -0.860477 0.0611854
upperback 0.023371 -0.716373 3.72826
thorax -7.90225 -0.22323 4.09962
lowerneck -1.72508 -7.86936 -7.62336
upperneck -6.48028 -9.86112 13.9737
head -0.49675 -4.94719 5.33776
rclavicle -9.30312e-014 -3.10104e-014
rhumerus 7.33058 19.3007 -89.6163
rradius 130.821
rwrist 16.3584
rhand 28.925 5.22875
rfingers 7.12502
rthumb 52.7379 -14.4281
lclavicle -9.30312e-014 -3.10104e-014
lhumerus 4.45399 1.49133 92.4381
lradius 129.488
lwrist -22.6813
lhand 12.3549 40.4525
lfingers 7.12502
lthumb 37.3563 66.4241
rfemur -39.9225 -3.51204 12.5502
rtibia 40.1205
rfoot -17.2533 -19.0432
rtoes -15.5142
lfemur -41.4467 -13.1822 -4.93692
ltibia 18.949
lfoot -0.779766 13.7439
ltoes -36.0265
2832
root -0.736986 17.388 1.76185 20.2564 117.006 -4.39325
lowerback 13.7254 -0.934724 -0.405919
upperback 0.270512 -0.880451 3.96993
thorax -7.36078 -0.288598 4.63797
lowerneck -1.5255 -7.63979 -7.46191
upperneck -6.99637 -9.53166 13.4772
head -0.752593 -4.79585 5.19842
rclavicle -2.54444e-014 -3.18055e-014
rhumerus 7.73857 19.2606 -89.3476
rradius 130.585
rwrist 17.2384
rhand 28.3202 5.43351
rfingers 7.12502
rthumb 52.1906 -14.5583
lclavicle -2.54444e-014 -3.18055e-014
lhumerus 4.85361 1.48776 92.6104
lradius 129.315
lwrist -22.8749
lhand 12.7124 40.5313
lfingers 7.12502
lthumb 37.6942 66.4131
rfemur -40.2221 -3.00099 12.156
rtibia 39.9092
rfoot -17.1957 -18.8137
rtoes -15.5148
lfemur -41.3625 -12.9943 -5.09833
ltibia 19.0243
lfoot -0.860805 14.5351
ltoes -35.4178
2833
root -0.748929 17.3904 1.76848 20.0409 115.892 -4.71654
lowerback 13.7507 -0.999259 -0.514501
upperback 0.281259 -0.982101 3.99741
thorax -7.35275 -0.334403 4.75042
lowerneck -1.47524 -7.52501 -7.37853
upperneck -7.13792 -9.37273 13.3165
head -0.83211 -4.72045 5.14827
rclavicle -1.59028e-015 0
rhumerus 7.8084 18.9038 -89.3089
rradius 130.416
rwrist 17.9887
rhand 27.6306 5.33331
rfingers 7.12502
rthumb 51.5647 -15.0274
lclavicle -1.59028e-015 0
lhumerus 5.15191 1.35819 92.7062
lradius 129.092
lwrist -23.0352
lhand 13.3395 40.6554
lfingers 7.12502
lthumb 38.2864 66.3761
rfemur -40.5209 -2.31826 11.7827
rtibia 39.7416
rfoot -17.2519 -18.7165
rtoes -15.3799
lfemur -41.1525 -12.669 -5.29482
ltibia 19.0474
lfoot -1.0318 15.1542
ltoes -34.9419
